<?xml version="1.0" encoding="UTF-8"?>
<svg width="19px" height="19px" viewBox="0 0 19 19" version="1.1" xmlns="http://www.w3.org/2000/svg" xmlns:xlink="http://www.w3.org/1999/xlink">
    <!-- Generator: Sketch 55.1 (78136) - https://sketchapp.com -->
    <title>round-access_time-24px</title>
    <desc>Created with Sketch.</desc>
    <g id="High-fi-Prototype" stroke="none" stroke-width="1" fill="none" fill-rule="evenodd">
        <g id="Home-Copy" transform="translate(-51.000000, -815.000000)">
            <g id="Card" transform="translate(24.000000, 476.000000)">
                <g id="Informatie-doorlooptijd" transform="translate(24.000000, 337.000000)">
                    <g id="round-access_time-24px">
                        <polygon id="Path" points="0 0 24 0 24 24 0 24"></polygon>
                        <path d="M12.4905,2 C7.2465,2 3,6.256 3,11.5 C3,16.744 7.2465,21 12.4905,21 C17.744,21 22,16.744 22,11.5 C22,6.256 17.744,2 12.4905,2 Z M12.5,19.1 C8.301,19.1 4.9,15.699 4.9,11.5 C4.9,7.301 8.301,3.9 12.5,3.9 C16.699,3.9 20.1,7.301 20.1,11.5 C20.1,15.699 16.699,19.1 12.5,19.1 Z M12.291,6.75 L12.234,6.75 C11.854,6.75 11.55,7.054 11.55,7.434 L11.55,11.918 C11.55,12.2505 11.721,12.564 12.0155,12.735 L15.958,15.1005 C16.281,15.2905 16.699,15.1955 16.889,14.8725 C17.0885,14.5495 16.984,14.122 16.6515,13.932 L12.975,11.747 L12.975,7.434 C12.975,7.054 12.671,6.75 12.291,6.75 L12.291,6.75 Z" id="Shape" fill="#1F2933" fill-rule="nonzero"></path>
                    </g>
                </g>
            </g>
        </g>
    </g>
</svg>