<?xml version="1.0" encoding="UTF-8"?>
<svg width="18px" height="18px" viewBox="0 0 18 18" version="1.1" xmlns="http://www.w3.org/2000/svg" xmlns:xlink="http://www.w3.org/1999/xlink">
    <!-- Generator: Sketch 55.1 (78136) - https://sketchapp.com -->
    <title>round-edit-24px</title>
    <desc>Created with Sketch.</desc>
    <g id="High-fi-Prototype" stroke="none" stroke-width="1" fill="none" fill-rule="evenodd">
        <g id="Detail-view" transform="translate(-357.000000, -120.000000)">
            <g id="Add-method-Copy" transform="translate(354.000000, 116.000000)">
                <g id="round-edit-24px" transform="translate(0.000000, 1.000000)">
                    <polygon id="Path" points="0 0 24 0 24 24 0 24"></polygon>
                    <path d="M3,17.46 L3,20.5 C3,20.78 3.22,21 3.5,21 L6.54,21 C6.67,21 6.8,20.95 6.89,20.85 L17.81,9.94 L14.06,6.19 L3.15,17.1 C3.05,17.2 3,17.32 3,17.46 Z M20.71,7.04 C21.1,6.65 21.1,6.02 20.71,5.63 L18.37,3.29 C17.98,2.9 17.35,2.9 16.96,3.29 L15.13,5.12 L18.88,8.87 L20.71,7.04 Z" id="Shape" fill="#323F4B" fill-rule="nonzero"></path>
                </g>
            </g>
        </g>
    </g>
</svg>