<?xml version="1.0" encoding="UTF-8"?>
<svg width="18px" height="18px" viewBox="0 0 18 18" version="1.1" xmlns="http://www.w3.org/2000/svg" xmlns:xlink="http://www.w3.org/1999/xlink">
    <!-- Generator: Sketch 55.1 (78136) - https://sketchapp.com -->
    <title>Path</title>
    <desc>Created with Sketch.</desc>
    <g id="High-fi-Prototype" stroke="none" stroke-width="1" fill="none" fill-rule="evenodd">
        <g id="Detail-view" transform="translate(-676.000000, -419.000000)" fill="#323F4B" fill-rule="nonzero">
            <g id="gem.-resultaten" transform="translate(649.000000, 192.000000)">
                <g id="Group-11" transform="translate(0.000000, 216.000000)">
                    <g id="Informatie-Kosten" transform="translate(24.000000, 8.000000)">
                        <g id="Group-4">
                            <g id="round-euro_symbol-24px">
                                <path d="M15,18.5 C12.49,18.5 10.32,17.08 9.24,15 L14,15 C14.55,15 15,14.55 15,14 C15,13.45 14.55,13 14,13 L8.58,13 C8.53,12.67 8.5,12.34 8.5,12 C8.5,11.66 8.53,11.33 8.58,11 L14,11 C14.55,11 15,10.55 15,10 C15,9.45 14.55,9 14,9 L9.24,9 C10.32,6.92 12.5,5.5 15,5.5 C16.25,5.5 17.42,5.86 18.42,6.47 C18.92,6.78 19.57,6.73 19.99,6.31 C20.57,5.73 20.44,4.78 19.74,4.35 C18.36,3.5 16.73,3 15,3 C11.08,3 7.76,5.51 6.52,9 L4,9 C3.45,9 3,9.45 3,10 C3,10.55 3.45,11 4,11 L6.06,11 C6.02,11.33 6,11.66 6,12 C6,12.34 6.02,12.67 6.06,13 L4,13 C3.45,13 3,13.45 3,14 C3,14.55 3.45,15 4,15 L6.52,15 C7.76,18.49 11.08,21 15,21 C16.74,21 18.36,20.51 19.74,19.65 C20.43,19.22 20.56,18.26 19.98,17.68 C19.56,17.26 18.91,17.21 18.41,17.53 C17.42,18.15 16.26,18.5 15,18.5 Z" id="Path"></path>
                            </g>
                        </g>
                    </g>
                </g>
            </g>
        </g>
    </g>
</svg>