<?xml version="1.0" encoding="UTF-8"?>
<svg width="20px" height="20px" viewBox="0 0 20 20" version="1.1" xmlns="http://www.w3.org/2000/svg" xmlns:xlink="http://www.w3.org/1999/xlink">
    <!-- Generator: Sketch 55.1 (78136) - https://sketchapp.com -->
    <title>round-wallpaper-24px</title>
    <desc>Created with Sketch.</desc>
    <g id="High-fi-Prototype" stroke="none" stroke-width="1" fill="none" fill-rule="evenodd">
        <g id="Detail-view" transform="translate(-675.000000, -458.000000)">
            <g id="gem.-resultaten" transform="translate(649.000000, 192.000000)">
                <g id="Group-9" transform="translate(0.000000, 256.000000)">
                    <g id="Informatie-Kosten-Copy-2" transform="translate(24.000000, 8.000000)">
                        <g id="Group-4">
                            <g id="round-wallpaper-24px">
                                <polygon id="Path" points="0 0 24 0 24 24 0 24"></polygon>
                                <path d="M4,5 C4,4.45 4.45,4 5,4 L10,4 C10.55,4 11,3.55 11,3 C11,2.45 10.55,2 10,2 L4,2 C2.9,2 2,2.9 2,4 L2,10 C2,10.55 2.45,11 3,11 C3.55,11 4,10.55 4,10 L4,5 Z M20,2 L14,2 C13.45,2 13,2.45 13,3 C13,3.55 13.45,4 14,4 L19,4 C19.55,4 20,4.45 20,5 L20,10 C20,10.55 20.45,11 21,11 C21.55,11 22,10.55 22,10 L22,4 C22,2.9 21.1,2 20,2 Z M20,19 C20,19.55 19.55,20 19,20 L14,20 C13.45,20 13,20.45 13,21 C13,21.55 13.45,22 14,22 L20,22 C21.1,22 22,21.1 22,20 L22,14 C22,13.45 21.55,13 21,13 C20.45,13 20,13.45 20,14 L20,19 Z M3,13 C2.45,13 2,13.45 2,14 L2,20 C2,21.1 2.9,22 4,22 L10,22 C10.55,22 11,21.55 11,21 C11,20.45 10.55,20 10,20 L5,20 C4.45,20 4,19.55 4,19 L4,14 C4,13.45 3.55,13 3,13 Z" id="Shape" fill="#323F4B" fill-rule="nonzero"></path>
                            </g>
                        </g>
                    </g>
                </g>
            </g>
        </g>
    </g>
</svg>