<?xml version="1.0" encoding="UTF-8"?>
<svg width="24px" height="20px" viewBox="0 0 24 20" version="1.1" xmlns="http://www.w3.org/2000/svg" xmlns:xlink="http://www.w3.org/1999/xlink">
    <!-- Generator: Sketch 55.1 (78136) - https://sketchapp.com -->
    <title>round-tv-24px</title>
    <desc>Created with Sketch.</desc>
    <g id="High-fi-Prototype" stroke="none" stroke-width="1" fill="none" fill-rule="evenodd">
        <g id="Detail-view" transform="translate(-812.000000, -117.000000)" fill="#000000" fill-rule="nonzero">
            <g id="Add-method" transform="translate(796.000000, 104.000000)">
                <g id="round-tv-24px" transform="translate(16.000000, 13.000000)">
                    <path d="M21.8181818,0 L2.18181818,0 C0.981818182,0 0,0.981818182 0,2.18181818 L0,15.2727273 C0,16.4727273 0.981818182,17.4545455 2.18181818,17.4545455 L7.63636364,17.4545455 L7.63636364,18.5454545 C7.63636364,19.1454545 8.12727273,19.6363636 8.72727273,19.6363636 L15.2727273,19.6363636 C15.8727273,19.6363636 16.3636364,19.1454545 16.3636364,18.5454545 L16.3636364,17.4545455 L21.8181818,17.4545455 C23.0181818,17.4545455 23.9890909,16.4727273 23.9890909,15.2727273 L24,2.18181818 C24,0.981818182 23.0181818,0 21.8181818,0 Z M20.7272727,15.2727273 L3.27272727,15.2727273 C2.67272727,15.2727273 2.18181818,14.7818182 2.18181818,14.1818182 L2.18181818,3.27272727 C2.18181818,2.67272727 2.67272727,2.18181818 3.27272727,2.18181818 L20.7272727,2.18181818 C21.3272727,2.18181818 21.8181818,2.67272727 21.8181818,3.27272727 L21.8181818,14.1818182 C21.8181818,14.7818182 21.3272727,15.2727273 20.7272727,15.2727273 Z" id="Shape"></path>
                </g>
            </g>
        </g>
    </g>
</svg>