<?xml version="1.0" encoding="UTF-8"?>
<svg width="21px" height="20px" viewBox="0 0 21 20" version="1.1" xmlns="http://www.w3.org/2000/svg" xmlns:xlink="http://www.w3.org/1999/xlink">
    <!-- Generator: Sketch 55.1 (78136) - https://sketchapp.com -->
    <title>round-rotate_90_degrees_ccw-24px</title>
    <desc>Created with Sketch.</desc>
    <g id="High-fi-Prototype" stroke="none" stroke-width="1" fill="none" fill-rule="evenodd">
        <g id="Detail-view" transform="translate(-674.000000, -258.000000)">
            <g id="gem.-resultaten" transform="translate(649.000000, 192.000000)">
                <g id="Group-5" transform="translate(0.000000, 56.000000)">
                    <g id="Informatie-ROI" transform="translate(24.000000, 8.000000)">
                        <g id="Group">
                            <g id="round-rotate_90_degrees_ccw-24px">
                                <polygon id="Path" points="0 0 24 0 24 24 0 24"></polygon>
                                <path d="M19.36,6.64 C17.61,4.88 15.3,4 13,4 L13,3.17 C13,2.28 11.92,1.83 11.29,2.46 L9.47,4.29 C9.08,4.68 9.08,5.31 9.47,5.7 L11.3,7.53 C11.92,8.16 13,7.72 13,6.83 L13,6 C15.02,6 17.03,6.86 18.45,8.61 C20.5,11.13 20.5,14.88 18.45,17.4 C17.03,19.14 15.02,20 13,20 C12.22,20 11.45,19.87 10.71,19.61 C10.35,19.49 9.96,19.6 9.69,19.87 C9.19,20.37 9.35,21.26 10.03,21.49 C10.99,21.83 11.99,22 13,22 C15.3,22 17.61,21.12 19.36,19.36 C22.88,15.85 22.88,10.15 19.36,6.64 L19.36,6.64 Z" id="Shape" fill="#7B8794" fill-rule="nonzero"></path>
                                <path d="M8,15.75 C6.745,15.75 5.66,15.04 5.12,14 L7.5,14 C7.775,14 8,13.775 8,13.5 C8,13.225 7.775,13 7.5,13 L4.79,13 C4.765,12.835 4.75,12.67 4.75,12.5 C4.75,12.33 4.765,12.165 4.79,12 L7.5,12 C7.775,12 8,11.775 8,11.5 C8,11.225 7.775,11 7.5,11 L5.12,11 C5.66,9.96 6.75,9.25 8,9.25 C8.625,9.25 9.21,9.43 9.71,9.735 C9.96,9.89 10.285,9.865 10.495,9.655 C10.785,9.365 10.72,8.89 10.37,8.675 C9.68,8.25 8.865,8 8,8 C6.04,8 4.38,9.255 3.76,11 L2.5,11 C2.225,11 2,11.225 2,11.5 C2,11.775 2.225,12 2.5,12 L3.53,12 C3.51,12.165 3.5,12.33 3.5,12.5 C3.5,12.67 3.51,12.835 3.53,13 L2.5,13 C2.225,13 2,13.225 2,13.5 C2,13.775 2.225,14 2.5,14 L3.76,14 C4.38,15.745 6.04,17 8,17 C8.87,17 9.68,16.755 10.37,16.325 C10.715,16.11 10.78,15.63 10.49,15.34 C10.28,15.13 9.955,15.105 9.705,15.265 C9.21,15.575 8.63,15.75 8,15.75 Z" id="Path" stroke="#7B8794" stroke-width="0.5" fill="#7B8794" fill-rule="nonzero"></path>
                            </g>
                        </g>
                    </g>
                </g>
            </g>
        </g>
    </g>
</svg>